<svg xmlns="http://www.w3.org/2000/svg" xmlns:xlink="http://www.w3.org/1999/xlink" width="1920" zoomAndPan="magnify" viewBox="0 0 1440 809.999993" height="1080" preserveAspectRatio="xMidYMid meet" version="1.0"><defs><g/></defs><g fill="#000000" fill-opacity="1"><g transform="translate(649.843268, 401.656514)"><g><path d="M 1.53125 -1.53125 L 0 -1.53125 L 0 -10.75 L 3.078125 -10.75 L 3.078125 -1.53125 L 7.671875 -1.53125 L 7.671875 -10.75 L 10.75 -10.75 L 10.75 -1.53125 L 9.203125 -1.53125 L 9.203125 0 L 1.53125 0 Z M 1.53125 -1.53125 "/></g></g></g><g fill="#000000" fill-opacity="1"><g transform="translate(663.184919, 401.656514)"><g><path d="M 3.078125 -6.140625 L 6.140625 -6.140625 L 6.140625 -9.203125 L 3.078125 -9.203125 Z M 7.671875 -6.140625 L 7.671875 -4.59375 L 3.078125 -4.59375 L 3.078125 0 L 0 0 L 0 -10.75 L 7.671875 -10.75 L 7.671875 -9.203125 L 9.203125 -9.203125 L 9.203125 -6.140625 Z M 7.671875 -6.140625 "/></g></g></g><g fill="#000000" fill-opacity="1"><g transform="translate(674.998694, 401.656514)"><g><path d="M 1.53125 -1.53125 L 0 -1.53125 L 0 -3.078125 L 3.078125 -3.078125 L 3.078125 -1.53125 L 6.140625 -1.53125 L 6.140625 -4.59375 L 1.53125 -4.59375 L 1.53125 -6.140625 L 0 -6.140625 L 0 -9.203125 L 1.53125 -9.203125 L 1.53125 -10.75 L 7.671875 -10.75 L 7.671875 -9.203125 L 9.203125 -9.203125 L 9.203125 -7.671875 L 6.140625 -7.671875 L 6.140625 -9.203125 L 3.078125 -9.203125 L 3.078125 -6.140625 L 7.671875 -6.140625 L 7.671875 -4.59375 L 9.203125 -4.59375 L 9.203125 -1.53125 L 7.671875 -1.53125 L 7.671875 0 L 1.53125 0 Z M 1.53125 -1.53125 "/></g></g></g><g fill="#000000" fill-opacity="1"><g transform="translate(686.812469, 401.656514)"><g><path d="M 0 -10.75 L 3.078125 -10.75 L 3.078125 0 L 0 0 Z M 0 -10.75 "/></g></g></g><g fill="#000000" fill-opacity="1"><g transform="translate(692.484783, 401.656514)"><g><path d="M 7.671875 -7.671875 L 6.140625 -7.671875 L 6.140625 -9.203125 L 3.078125 -9.203125 L 3.078125 -1.53125 L 6.140625 -1.53125 L 6.140625 -3.078125 L 7.671875 -3.078125 Z M 9.203125 -9.203125 L 9.203125 -7.671875 L 10.75 -7.671875 L 10.75 -3.078125 L 9.203125 -3.078125 L 9.203125 -1.53125 L 7.671875 -1.53125 L 7.671875 0 L 0 0 L 0 -10.75 L 7.671875 -10.75 L 7.671875 -9.203125 Z M 9.203125 -9.203125 "/></g></g></g><g fill="#000000" fill-opacity="1"><g transform="translate(705.826434, 401.656514)"><g><path d="M 3.078125 -1.53125 L 9.203125 -1.53125 L 9.203125 0 L 0 0 L 0 -10.75 L 9.203125 -10.75 L 9.203125 -9.203125 L 3.078125 -9.203125 L 3.078125 -6.140625 L 7.671875 -6.140625 L 7.671875 -4.59375 L 3.078125 -4.59375 Z M 3.078125 -1.53125 "/></g></g></g><g fill="#000000" fill-opacity="1"><g transform="translate(717.640209, 401.656514)"><g><path d="M 0 -4.609375 L 4.59375 -4.609375 L 4.59375 -3.078125 L 0 -3.078125 Z M 0 -4.609375 "/></g></g></g><g fill="#000000" fill-opacity="1"><g transform="translate(724.847888, 401.656514)"><g/></g></g><g fill="#000000" fill-opacity="1"><g transform="translate(730.520201, 401.656514)"><g><path d="M 7.671875 -7.671875 L 6.140625 -7.671875 L 6.140625 -9.203125 L 3.078125 -9.203125 L 3.078125 -1.53125 L 6.140625 -1.53125 L 6.140625 -3.078125 L 7.671875 -3.078125 Z M 9.203125 -9.203125 L 9.203125 -7.671875 L 10.75 -7.671875 L 10.75 -3.078125 L 9.203125 -3.078125 L 9.203125 -1.53125 L 7.671875 -1.53125 L 7.671875 0 L 0 0 L 0 -10.75 L 7.671875 -10.75 L 7.671875 -9.203125 Z M 9.203125 -9.203125 "/></g></g></g><g fill="#000000" fill-opacity="1"><g transform="translate(743.861852, 401.656514)"><g><path d="M 1.53125 -7.671875 L 1.53125 -9.203125 L 3.078125 -9.203125 L 3.078125 -10.75 L 9.203125 -10.75 L 9.203125 -9.203125 L 10.75 -9.203125 L 10.75 -7.671875 L 12.265625 -7.671875 L 12.265625 -3.078125 L 10.75 -3.078125 L 10.75 -1.53125 L 9.203125 -1.53125 L 9.203125 0 L 3.078125 0 L 3.078125 -1.53125 L 1.53125 -1.53125 L 1.53125 -3.078125 L 0 -3.078125 L 0 -7.671875 Z M 7.671875 -7.671875 L 7.671875 -9.203125 L 4.59375 -9.203125 L 4.59375 -7.6875 L 3.078125 -7.6875 L 3.078125 -3.0625 L 4.59375 -3.0625 L 4.59375 -1.53125 L 7.671875 -1.53125 L 7.671875 -3.078125 L 9.203125 -3.078125 L 9.203125 -7.671875 Z M 7.671875 -7.671875 "/></g></g></g><g fill="#000000" fill-opacity="1"><g transform="translate(758.738868, 401.656514)"><g><path d="M 10.75 -6.140625 L 10.75 -7.671875 L 12.265625 -7.671875 L 12.265625 -10.75 L 15.34375 -10.75 L 15.34375 -7.671875 L 13.8125 -7.671875 L 13.8125 -3.078125 L 12.265625 -3.078125 L 12.265625 0 L 9.203125 0 L 9.203125 -3.078125 L 6.140625 -3.078125 L 6.140625 0 L 3.078125 0 L 3.078125 -3.078125 L 1.53125 -3.078125 L 1.53125 -7.671875 L 0 -7.671875 L 0 -10.75 L 3.078125 -10.75 L 3.078125 -7.671875 L 4.59375 -7.671875 L 4.59375 -6.140625 L 6.140625 -6.140625 L 6.140625 -10.75 L 9.203125 -10.75 L 9.203125 -6.140625 Z M 10.75 -6.140625 "/></g></g></g><g fill="#000000" fill-opacity="1"><g transform="translate(776.686615, 401.656514)"><g><path d="M 10.75 -10.75 L 10.75 0 L 7.671875 0 L 7.671875 -3.078125 L 6.140625 -3.078125 L 6.140625 -4.59375 L 4.59375 -4.59375 L 4.59375 -6.140625 L 3.078125 -6.140625 L 3.078125 0 L 0 0 L 0 -10.75 L 3.078125 -10.75 L 3.078125 -9.203125 L 4.59375 -9.203125 L 4.59375 -7.671875 L 6.140625 -7.671875 L 6.140625 -6.140625 L 7.671875 -6.140625 L 7.671875 -10.75 Z M 10.75 -10.75 "/></g></g></g><g fill="#000000" fill-opacity="1"><g transform="translate(650.449407, 418.489144)"><g><path d="M 1.703125 -3.40625 L 0 -3.40625 L 0 -8.515625 L 1.703125 -8.515625 L 1.703125 -10.21875 L 3.40625 -10.21875 L 3.40625 -11.921875 L 8.515625 -11.921875 L 8.515625 -10.21875 L 10.21875 -10.21875 L 10.21875 -8.515625 L 11.921875 -8.515625 L 11.921875 -3.40625 L 10.21875 -3.40625 L 10.21875 -1.703125 L 8.515625 -1.703125 L 8.515625 0 L 3.40625 0 L 3.40625 -1.703125 L 1.703125 -1.703125 Z M 3.40625 -1.71875 L 8.515625 -1.71875 L 8.515625 -3.40625 L 10.1875 -3.40625 L 10.1875 -8.515625 L 8.515625 -8.515625 L 8.515625 -10.1875 L 3.40625 -10.1875 L 3.40625 -8.515625 L 1.71875 -8.515625 L 1.71875 -3.40625 L 3.40625 -3.40625 Z M 3.40625 -1.71875 "/></g></g><g transform="translate(665.768616, 418.489144)"><g><path d="M 3.40625 -8.515625 L 3.40625 -3.40625 L 6.8125 -3.40625 L 6.8125 0 L 3.40625 0 L 3.40625 -3.40625 L 1.703125 -3.40625 L 1.703125 -8.515625 L 0 -8.515625 L 0 -11.921875 L 1.703125 -11.921875 L 1.703125 -8.515625 Z M 6.796875 -3.40625 L 6.796875 -8.515625 L 8.515625 -8.515625 L 8.515625 -3.40625 Z M 8.515625 -11.921875 L 10.21875 -11.921875 L 10.21875 -8.515625 L 8.515625 -8.515625 Z M 8.515625 -11.921875 "/></g></g><g transform="translate(679.383843, 418.489144)"><g><path d="M 1.703125 -1.703125 L 8.515625 -1.703125 L 8.515625 0 L 0 0 L 0 -11.921875 L 8.515625 -11.921875 L 8.515625 -10.21875 L 1.703125 -10.21875 L 1.703125 -6.796875 L 6.796875 -6.796875 L 6.796875 -5.09375 L 1.703125 -5.09375 Z M 1.703125 -1.703125 "/></g></g><g transform="translate(691.303401, 418.489144)"><g><path d="M 1.703125 -5.09375 L 1.703125 0 L 0 0 L 0 -11.921875 L 6.796875 -11.921875 L 6.796875 -10.21875 L 8.515625 -10.21875 L 8.515625 -6.796875 L 6.796875 -6.796875 L 6.796875 -5.09375 Z M 1.703125 -6.796875 L 6.78125 -6.796875 L 6.78125 -10.21875 L 1.703125 -10.21875 Z M 8.515625 -5.09375 L 8.515625 0 L 6.796875 0 L 6.796875 -5.09375 Z M 8.515625 -5.09375 "/></g></g><g transform="translate(703.222959, 418.489144)"><g><path d="M 1.703125 0 L 0 0 L 0 -11.921875 L 8.515625 -11.921875 L 8.515625 -10.21875 L 1.703125 -10.21875 L 1.703125 -6.796875 L 6.796875 -6.796875 L 6.796875 -5.09375 L 1.703125 -5.09375 Z M 1.703125 0 "/></g></g><g transform="translate(715.142517, 418.489144)"><g><path d="M 6.796875 -1.703125 L 6.796875 0 L 0 0 L 0 -11.921875 L 1.6875 -11.921875 L 1.6875 -1.703125 Z M 6.796875 -1.703125 "/></g></g><g transform="translate(725.358093, 418.489144)"><g><path d="M 1.703125 -3.40625 L 0 -3.40625 L 0 -8.515625 L 1.703125 -8.515625 L 1.703125 -10.21875 L 3.40625 -10.21875 L 3.40625 -11.921875 L 8.515625 -11.921875 L 8.515625 -10.21875 L 10.21875 -10.21875 L 10.21875 -8.515625 L 11.921875 -8.515625 L 11.921875 -3.40625 L 10.21875 -3.40625 L 10.21875 -1.703125 L 8.515625 -1.703125 L 8.515625 0 L 3.40625 0 L 3.40625 -1.703125 L 1.703125 -1.703125 Z M 3.40625 -1.71875 L 8.515625 -1.71875 L 8.515625 -3.40625 L 10.1875 -3.40625 L 10.1875 -8.515625 L 8.515625 -8.515625 L 8.515625 -10.1875 L 3.40625 -10.1875 L 3.40625 -8.515625 L 1.71875 -8.515625 L 1.71875 -3.40625 L 3.40625 -3.40625 Z M 3.40625 -1.71875 "/></g></g><g transform="translate(740.677302, 418.489144)"><g><path d="M 6.796875 -8.515625 L 6.796875 -11.921875 L 8.515625 -11.921875 L 8.515625 -8.515625 L 10.21875 -8.515625 L 10.21875 -3.40625 L 11.921875 -3.40625 L 11.921875 0 L 10.21875 0 L 10.21875 -3.40625 L 8.515625 -3.40625 L 8.515625 -8.515625 Z M 0 -8.515625 L 0 -11.921875 L 1.703125 -11.921875 L 1.703125 -8.515625 L 3.40625 -8.515625 L 3.40625 -3.40625 L 5.109375 -3.40625 L 5.109375 0 L 3.40625 0 L 3.40625 -3.40625 L 1.703125 -3.40625 L 1.703125 -8.515625 Z M 11.90625 -3.40625 L 11.90625 -8.515625 L 13.609375 -8.515625 L 13.609375 -3.40625 Z M 5.09375 -3.40625 L 5.09375 -8.515625 L 6.796875 -8.515625 L 6.796875 -3.40625 Z M 13.609375 -11.921875 L 15.3125 -11.921875 L 15.3125 -8.515625 L 13.609375 -8.515625 Z M 13.609375 -11.921875 "/></g></g><g transform="translate(759.404473, 418.489144)"><g><path d="M 1.703125 -8.515625 L 0 -8.515625 L 0 -11.921875 L 1.703125 -11.921875 Z M 1.703125 -8.515625 "/></g></g><g transform="translate(764.508105, 418.489144)"><g><path d="M 0 -1.703125 L 1.703125 -1.703125 L 1.703125 -3.40625 L 3.40625 -3.40625 L 3.40625 -1.703125 L 8.515625 -1.703125 L 8.515625 0 L 0 0 Z M 8.515625 -10.21875 L 8.515625 -6.796875 L 6.796875 -6.796875 L 6.796875 -10.21875 L 1.703125 -10.21875 L 1.703125 -11.921875 L 6.796875 -11.921875 L 6.796875 -10.21875 Z M 0 -10.21875 L 1.703125 -10.21875 L 1.703125 -8.515625 L 0 -8.515625 Z M 6.796875 -5.09375 L 5.09375 -5.09375 L 5.09375 -6.796875 L 6.796875 -6.796875 Z M 3.40625 -3.40625 L 3.40625 -5.109375 L 5.109375 -5.109375 L 5.109375 -3.40625 Z M 3.40625 -3.40625 "/></g></g><g transform="translate(776.427663, 418.489144)"><g><path d="M 1.703125 -10.21875 L 1.703125 -8.515625 L 6.796875 -8.515625 L 6.796875 -6.796875 L 8.515625 -6.796875 L 8.515625 -1.703125 L 6.796875 -1.703125 L 6.796875 -6.796875 L 0 -6.796875 L 0 -11.921875 L 8.515625 -11.921875 L 8.515625 -10.21875 Z M 1.703125 0 L 1.703125 -1.703125 L 0 -1.703125 L 0 -3.40625 L 1.703125 -3.40625 L 1.703125 -1.703125 L 6.796875 -1.703125 L 6.796875 0 Z M 1.703125 0 "/></g></g></g></svg>